{"asset":{"version":"2.0","generator":"THREE.GLTFExporter"},"scenes":[{"nodes":[0],"name":"AuxScene"}],"scene":0,"nodes":[{"mesh":0}],"bufferViews":[{"buffer":0,"byteOffset":0,"byteLength":2340,"target":34962,"byteStride":12},{"buffer":0,"byteOffset":2340,"byteLength":2340,"target":34962,"byteStride":12}],"buffers":[{"byteLength":4680,"uri":"data:application/octet-stream;base64,"}],"accessors":[{"bufferView":0,"componentType":5126,"count":195,"max":[30.231338500976562,0.10000000149011612,11.466330528259277],"min":[-11.168662071228027,0.10000000149011612,-17.333669662475586],"type":"VEC3"},{"bufferView":1,"componentType":5126,"count":195,"max":[0,1,0],"min":[0,1,0],"type":"VEC3"}],"materials":[{"pbrMetallicRoughness":{"baseColorFactor":[0.5019607843137255,0.5019607843137255,0.5019607843137255,1],"metallicFactor":0,"roughnessFactor":1}}],"meshes":[{"primitives":[{"mode":4,"attributes":{"POSITION":0,"NORMAL":1},"material":0}]}]}